<mxfile host="app.diagrams.net" modified="2021-12-13T08:58:02.776Z" agent="5.0 (Macintosh; Intel Mac OS X 10_15_7) AppleWebKit/537.36 (KHTML, like Gecko) Chrome/96.0.4664.93 Safari/537.36" etag="CLg3K45Z7LMbdUah0wRx" version="15.9.4" type="github">
  <diagram id="kgpKYQtTHZ0yAKxKKP6v" name="Page-1">
    <mxGraphModel dx="1027" dy="524" grid="0" gridSize="10" guides="1" tooltips="1" connect="1" arrows="1" fold="1" page="1" pageScale="1" pageWidth="850" pageHeight="1100" math="0" shadow="0">
      <root>
        <mxCell id="0" />
        <mxCell id="1" parent="0" />
        <mxCell id="3nuBFxr9cyL0pnOWT2aG-1" value="update a file to cloudinary" style="shape=table;childLayout=tableLayout;rowLines=0;columnLines=0;startSize=40;html=1;whiteSpace=wrap;collapsible=0;recursiveResize=0;expand=0;fontStyle=1;movable=0;strokeWidth=1;fillColor=#dae8fc;strokeColor=#6c8ebf;gradientColor=#7ea6e0;" parent="1" vertex="1">
          <mxGeometry x="518" y="88" width="2102" height="1211.2737271118165" as="geometry" />
        </mxCell>
        <mxCell id="3nuBFxr9cyL0pnOWT2aG-3" value="end user" style="swimlane;horizontal=0;points=[[0,0.5],[1,0.5]];portConstraint=eastwest;startSize=40;html=1;whiteSpace=wrap;collapsible=0;recursiveResize=0;expand=0;fillColor=#f5f5f5;gradientColor=#b3b3b3;strokeColor=#666666;" parent="3nuBFxr9cyL0pnOWT2aG-1" vertex="1">
          <mxGeometry y="40" width="2102" height="214" as="geometry" />
        </mxCell>
        <mxCell id="3nuBFxr9cyL0pnOWT2aG-4" value="needs a file hosted" style="swimlane;connectable=0;startSize=40;html=1;whiteSpace=wrap;collapsible=0;recursiveResize=0;expand=0;" parent="3nuBFxr9cyL0pnOWT2aG-3" vertex="1">
          <mxGeometry x="40" width="206" height="214" as="geometry">
            <mxRectangle width="206" height="214" as="alternateBounds" />
          </mxGeometry>
        </mxCell>
        <mxCell id="3nuBFxr9cyL0pnOWT2aG-6" value="Start" style="rounded=1;whiteSpace=wrap;html=1;arcSize=50;" parent="3nuBFxr9cyL0pnOWT2aG-4" vertex="1">
          <mxGeometry x="9" y="123" width="90" height="41" as="geometry" />
        </mxCell>
        <mxCell id="3nuBFxr9cyL0pnOWT2aG-8" value="" style="swimlane;connectable=0;startSize=40;html=1;whiteSpace=wrap;collapsible=0;recursiveResize=0;expand=0;swimlaneLine=1;shadow=0;" parent="3nuBFxr9cyL0pnOWT2aG-3" vertex="1">
          <mxGeometry x="246" width="1714" height="214" as="geometry">
            <mxRectangle width="1714" height="214" as="alternateBounds" />
          </mxGeometry>
        </mxCell>
        <mxCell id="3nuBFxr9cyL0pnOWT2aG-9" value="click&lt;br&gt;&amp;nbsp;file &lt;br&gt;input" style="rounded=0;whiteSpace=wrap;html=1;fillColor=#dae8fc;strokeColor=#6c8ebf;" parent="3nuBFxr9cyL0pnOWT2aG-8" vertex="1">
          <mxGeometry x="147.25" y="139" width="57.5" height="50" as="geometry" />
        </mxCell>
        <mxCell id="3nuBFxr9cyL0pnOWT2aG-10" value="selects&lt;br&gt;&amp;nbsp;file" style="rounded=0;whiteSpace=wrap;html=1;fillColor=#dae8fc;strokeColor=#6c8ebf;" parent="3nuBFxr9cyL0pnOWT2aG-8" vertex="1">
          <mxGeometry x="408.5" y="139" width="51" height="50" as="geometry" />
        </mxCell>
        <mxCell id="7seNP1Z2jiMKAIhSUA_z-25" value="click &lt;br&gt;upload &lt;br&gt;button" style="rounded=0;whiteSpace=wrap;html=1;fillColor=#dae8fc;strokeColor=#6c8ebf;" vertex="1" parent="3nuBFxr9cyL0pnOWT2aG-8">
          <mxGeometry x="1024" y="139" width="65" height="56" as="geometry" />
        </mxCell>
        <mxCell id="7seNP1Z2jiMKAIhSUA_z-216" value="click password input" style="rounded=0;whiteSpace=wrap;html=1;fillColor=#dae8fc;strokeColor=#6c8ebf;" vertex="1" parent="3nuBFxr9cyL0pnOWT2aG-8">
          <mxGeometry x="568" y="139" width="64" height="50" as="geometry" />
        </mxCell>
        <mxCell id="3nuBFxr9cyL0pnOWT2aG-13" value="click link to hosted file" style="rounded=0;whiteSpace=wrap;html=1;" parent="3nuBFxr9cyL0pnOWT2aG-8" vertex="1">
          <mxGeometry x="1435" y="139" width="90" height="40" as="geometry" />
        </mxCell>
        <mxCell id="3nuBFxr9cyL0pnOWT2aG-11" value="access hosted file" style="swimlane;connectable=0;startSize=40;html=1;whiteSpace=wrap;collapsible=0;recursiveResize=0;expand=0;" parent="3nuBFxr9cyL0pnOWT2aG-3" vertex="1">
          <mxGeometry x="1960" width="142" height="214" as="geometry">
            <mxRectangle width="142" height="214" as="alternateBounds" />
          </mxGeometry>
        </mxCell>
        <mxCell id="3nuBFxr9cyL0pnOWT2aG-14" value="End" style="rounded=1;whiteSpace=wrap;html=1;arcSize=50;" parent="3nuBFxr9cyL0pnOWT2aG-11" vertex="1">
          <mxGeometry x="26" y="139" width="90" height="40" as="geometry" />
        </mxCell>
        <mxCell id="3nuBFxr9cyL0pnOWT2aG-12" style="edgeStyle=orthogonalEdgeStyle;rounded=0;orthogonalLoop=1;jettySize=auto;html=1;strokeWidth=2;" parent="3nuBFxr9cyL0pnOWT2aG-3" source="3nuBFxr9cyL0pnOWT2aG-13" target="3nuBFxr9cyL0pnOWT2aG-14" edge="1">
          <mxGeometry relative="1" as="geometry" />
        </mxCell>
        <mxCell id="3nuBFxr9cyL0pnOWT2aG-2" value="" style="edgeStyle=orthogonalEdgeStyle;rounded=0;orthogonalLoop=1;jettySize=auto;html=1;exitX=0.5;exitY=1;exitDx=0;exitDy=0;strokeWidth=2;entryX=0;entryY=0.5;entryDx=0;entryDy=0;" parent="3nuBFxr9cyL0pnOWT2aG-1" source="3nuBFxr9cyL0pnOWT2aG-6" target="7seNP1Z2jiMKAIhSUA_z-421" edge="1">
          <mxGeometry relative="1" as="geometry">
            <mxPoint x="177" y="200" as="sourcePoint" />
            <mxPoint x="171" y="408" as="targetPoint" />
          </mxGeometry>
        </mxCell>
        <mxCell id="7seNP1Z2jiMKAIhSUA_z-315" style="edgeStyle=orthogonalEdgeStyle;rounded=0;orthogonalLoop=1;jettySize=auto;html=1;exitX=0.5;exitY=1;exitDx=0;exitDy=0;strokeColor=#000000;strokeWidth=2;entryX=0;entryY=0.5;entryDx=0;entryDy=0;" edge="1" parent="3nuBFxr9cyL0pnOWT2aG-1" source="7seNP1Z2jiMKAIhSUA_z-216" target="7seNP1Z2jiMKAIhSUA_z-224">
          <mxGeometry relative="1" as="geometry" />
        </mxCell>
        <mxCell id="7seNP1Z2jiMKAIhSUA_z-313" style="edgeStyle=orthogonalEdgeStyle;rounded=0;orthogonalLoop=1;jettySize=auto;html=1;exitX=0.5;exitY=1;exitDx=0;exitDy=0;strokeColor=#000000;strokeWidth=2;entryX=0;entryY=0.5;entryDx=0;entryDy=0;" edge="1" parent="3nuBFxr9cyL0pnOWT2aG-1" source="3nuBFxr9cyL0pnOWT2aG-10" target="7seNP1Z2jiMKAIhSUA_z-162">
          <mxGeometry relative="1" as="geometry" />
        </mxCell>
        <mxCell id="7seNP1Z2jiMKAIhSUA_z-327" style="edgeStyle=orthogonalEdgeStyle;rounded=0;orthogonalLoop=1;jettySize=auto;html=1;exitX=0.5;exitY=0;exitDx=0;exitDy=0;entryX=0;entryY=0.5;entryDx=0;entryDy=0;strokeColor=#000000;strokeWidth=2;" edge="1" parent="3nuBFxr9cyL0pnOWT2aG-1" source="7seNP1Z2jiMKAIhSUA_z-201" target="7seNP1Z2jiMKAIhSUA_z-25">
          <mxGeometry relative="1" as="geometry" />
        </mxCell>
        <mxCell id="3nuBFxr9cyL0pnOWT2aG-15" value="client-script" style="swimlane;horizontal=0;points=[[0,0.5],[1,0.5]];portConstraint=eastwest;startSize=40;html=1;whiteSpace=wrap;collapsible=0;recursiveResize=0;expand=0;strokeWidth=1;" parent="3nuBFxr9cyL0pnOWT2aG-1" vertex="1">
          <mxGeometry y="254" width="2102" height="437" as="geometry" />
        </mxCell>
        <mxCell id="3nuBFxr9cyL0pnOWT2aG-16" value="" style="swimlane;connectable=0;startSize=0;html=1;whiteSpace=wrap;collapsible=0;recursiveResize=0;expand=0;" parent="3nuBFxr9cyL0pnOWT2aG-15" vertex="1">
          <mxGeometry x="40" width="206" height="437" as="geometry">
            <mxRectangle width="206" height="437" as="alternateBounds" />
          </mxGeometry>
        </mxCell>
        <mxCell id="7seNP1Z2jiMKAIhSUA_z-421" value="render&lt;br&gt;UI" style="whiteSpace=wrap;html=1;fixedSize=1;rounded=0;shadow=0;glass=0;sketch=0;strokeWidth=2;fillColor=default;gradientColor=none;" vertex="1" parent="3nuBFxr9cyL0pnOWT2aG-16">
          <mxGeometry x="112" y="84.5" width="84" height="58" as="geometry" />
        </mxCell>
        <mxCell id="3nuBFxr9cyL0pnOWT2aG-18" value="" style="swimlane;connectable=0;startSize=0;html=1;whiteSpace=wrap;collapsible=0;recursiveResize=0;expand=0;movable=0;strokeWidth=1;dashed=1;fillColor=#d5e8d4;strokeColor=#82b366;" parent="3nuBFxr9cyL0pnOWT2aG-15" vertex="1">
          <mxGeometry x="246" width="1714" height="437" as="geometry">
            <mxRectangle width="1714" height="437" as="alternateBounds" />
          </mxGeometry>
        </mxCell>
        <mxCell id="7seNP1Z2jiMKAIhSUA_z-335" style="edgeStyle=orthogonalEdgeStyle;rounded=0;orthogonalLoop=1;jettySize=auto;html=1;exitX=0.5;exitY=0;exitDx=0;exitDy=0;entryX=0.5;entryY=1;entryDx=0;entryDy=0;strokeColor=#82b366;strokeWidth=2;fillColor=#d5e8d4;endArrow=none;endFill=0;" edge="1" parent="3nuBFxr9cyL0pnOWT2aG-18" source="7seNP1Z2jiMKAIhSUA_z-162" target="7seNP1Z2jiMKAIhSUA_z-174">
          <mxGeometry relative="1" as="geometry" />
        </mxCell>
        <mxCell id="7seNP1Z2jiMKAIhSUA_z-339" style="edgeStyle=orthogonalEdgeStyle;rounded=0;orthogonalLoop=1;jettySize=auto;html=1;exitX=0.5;exitY=1;exitDx=0;exitDy=0;entryX=0.5;entryY=0;entryDx=0;entryDy=0;strokeColor=#b85450;strokeWidth=2;fillColor=#f8cecc;endArrow=none;endFill=0;" edge="1" parent="3nuBFxr9cyL0pnOWT2aG-18" source="7seNP1Z2jiMKAIhSUA_z-162" target="7seNP1Z2jiMKAIhSUA_z-164">
          <mxGeometry relative="1" as="geometry" />
        </mxCell>
        <mxCell id="7seNP1Z2jiMKAIhSUA_z-162" value="valid file &lt;br&gt;type?" style="rhombus;whiteSpace=wrap;html=1;fillColor=#ffe6cc;strokeColor=#d79b00;" vertex="1" parent="3nuBFxr9cyL0pnOWT2aG-18">
          <mxGeometry x="471" y="196" width="80" height="80" as="geometry" />
        </mxCell>
        <mxCell id="7seNP1Z2jiMKAIhSUA_z-322" style="edgeStyle=orthogonalEdgeStyle;rounded=0;orthogonalLoop=1;jettySize=auto;html=1;exitX=0.5;exitY=1;exitDx=0;exitDy=0;entryX=0.5;entryY=0;entryDx=0;entryDy=0;strokeColor=#b85450;strokeWidth=2;fillColor=#f8cecc;endArrow=none;endFill=0;" edge="1" parent="3nuBFxr9cyL0pnOWT2aG-18" source="7seNP1Z2jiMKAIhSUA_z-186" target="7seNP1Z2jiMKAIhSUA_z-188">
          <mxGeometry relative="1" as="geometry" />
        </mxCell>
        <mxCell id="7seNP1Z2jiMKAIhSUA_z-325" style="edgeStyle=orthogonalEdgeStyle;rounded=0;orthogonalLoop=1;jettySize=auto;html=1;exitX=1;exitY=0.5;exitDx=0;exitDy=0;entryX=0;entryY=0.5;entryDx=0;entryDy=0;strokeColor=#82b366;strokeWidth=2;fillColor=#d5e8d4;endArrow=none;endFill=0;" edge="1" parent="3nuBFxr9cyL0pnOWT2aG-18" source="7seNP1Z2jiMKAIhSUA_z-186" target="7seNP1Z2jiMKAIhSUA_z-189">
          <mxGeometry relative="1" as="geometry" />
        </mxCell>
        <mxCell id="7seNP1Z2jiMKAIhSUA_z-186" value="all form&lt;br&gt;inputs&lt;br&gt;valid?" style="rhombus;whiteSpace=wrap;html=1;fillColor=#ffe6cc;strokeColor=#d79b00;" vertex="1" parent="3nuBFxr9cyL0pnOWT2aG-18">
          <mxGeometry x="773" y="196" width="80" height="80" as="geometry" />
        </mxCell>
        <mxCell id="7seNP1Z2jiMKAIhSUA_z-323" style="edgeStyle=orthogonalEdgeStyle;rounded=0;orthogonalLoop=1;jettySize=auto;html=1;entryX=0.5;entryY=1;entryDx=0;entryDy=0;strokeColor=#b85450;strokeWidth=2;fillColor=#f8cecc;" edge="1" parent="3nuBFxr9cyL0pnOWT2aG-18" source="7seNP1Z2jiMKAIhSUA_z-188" target="7seNP1Z2jiMKAIhSUA_z-415">
          <mxGeometry relative="1" as="geometry">
            <mxPoint x="234" y="190" as="targetPoint" />
            <Array as="points">
              <mxPoint x="813" y="367" />
              <mxPoint x="272" y="367" />
            </Array>
          </mxGeometry>
        </mxCell>
        <mxCell id="7seNP1Z2jiMKAIhSUA_z-188" value="No" style="whiteSpace=wrap;html=1;fillColor=#f8cecc;strokeColor=#b85450;" vertex="1" parent="3nuBFxr9cyL0pnOWT2aG-18">
          <mxGeometry x="793" y="305" width="40" height="40" as="geometry" />
        </mxCell>
        <mxCell id="7seNP1Z2jiMKAIhSUA_z-326" style="edgeStyle=orthogonalEdgeStyle;rounded=0;orthogonalLoop=1;jettySize=auto;html=1;exitX=0.5;exitY=0;exitDx=0;exitDy=0;entryX=0.5;entryY=1;entryDx=0;entryDy=0;strokeColor=#82b366;strokeWidth=2;fillColor=#d5e8d4;" edge="1" parent="3nuBFxr9cyL0pnOWT2aG-18" source="7seNP1Z2jiMKAIhSUA_z-189" target="7seNP1Z2jiMKAIhSUA_z-201">
          <mxGeometry relative="1" as="geometry" />
        </mxCell>
        <mxCell id="7seNP1Z2jiMKAIhSUA_z-189" value="yes" style="whiteSpace=wrap;html=1;fillColor=#d5e8d4;strokeColor=#82b366;" vertex="1" parent="3nuBFxr9cyL0pnOWT2aG-18">
          <mxGeometry x="913.5" y="216" width="40" height="40" as="geometry" />
        </mxCell>
        <mxCell id="7seNP1Z2jiMKAIhSUA_z-337" style="edgeStyle=orthogonalEdgeStyle;rounded=0;orthogonalLoop=1;jettySize=auto;html=1;exitX=0.5;exitY=0;exitDx=0;exitDy=0;strokeColor=#82b366;strokeWidth=2;fillColor=#d5e8d4;entryX=0.5;entryY=1;entryDx=0;entryDy=0;endArrow=none;endFill=0;" edge="1" parent="3nuBFxr9cyL0pnOWT2aG-18" source="7seNP1Z2jiMKAIhSUA_z-224" target="7seNP1Z2jiMKAIhSUA_z-226">
          <mxGeometry relative="1" as="geometry" />
        </mxCell>
        <mxCell id="7seNP1Z2jiMKAIhSUA_z-341" style="edgeStyle=orthogonalEdgeStyle;rounded=0;orthogonalLoop=1;jettySize=auto;html=1;exitX=0.5;exitY=1;exitDx=0;exitDy=0;entryX=0.5;entryY=0;entryDx=0;entryDy=0;strokeColor=#b85450;strokeWidth=2;fillColor=#f8cecc;endArrow=none;endFill=0;" edge="1" parent="3nuBFxr9cyL0pnOWT2aG-18" source="7seNP1Z2jiMKAIhSUA_z-224" target="7seNP1Z2jiMKAIhSUA_z-225">
          <mxGeometry relative="1" as="geometry" />
        </mxCell>
        <mxCell id="7seNP1Z2jiMKAIhSUA_z-224" value="valid&lt;br&gt;password?" style="rhombus;whiteSpace=wrap;html=1;fillColor=#ffe6cc;strokeColor=#d79b00;" vertex="1" parent="3nuBFxr9cyL0pnOWT2aG-18">
          <mxGeometry x="638" y="195" width="80" height="80" as="geometry" />
        </mxCell>
        <mxCell id="7seNP1Z2jiMKAIhSUA_z-342" style="edgeStyle=orthogonalEdgeStyle;rounded=0;orthogonalLoop=1;jettySize=auto;html=1;exitX=0.5;exitY=1;exitDx=0;exitDy=0;entryX=0.5;entryY=1;entryDx=0;entryDy=0;strokeColor=#b85450;strokeWidth=2;fillColor=#f8cecc;" edge="1" parent="3nuBFxr9cyL0pnOWT2aG-18" source="7seNP1Z2jiMKAIhSUA_z-225" target="7seNP1Z2jiMKAIhSUA_z-415">
          <mxGeometry relative="1" as="geometry">
            <mxPoint x="234" y="190" as="targetPoint" />
            <Array as="points">
              <mxPoint x="678" y="369" />
              <mxPoint x="272" y="369" />
            </Array>
          </mxGeometry>
        </mxCell>
        <mxCell id="7seNP1Z2jiMKAIhSUA_z-225" value="No" style="whiteSpace=wrap;html=1;fillColor=#f8cecc;strokeColor=#b85450;" vertex="1" parent="3nuBFxr9cyL0pnOWT2aG-18">
          <mxGeometry x="657" y="304" width="42" height="40" as="geometry" />
        </mxCell>
        <mxCell id="7seNP1Z2jiMKAIhSUA_z-414" style="edgeStyle=orthogonalEdgeStyle;rounded=0;orthogonalLoop=1;jettySize=auto;html=1;exitX=0.5;exitY=0;exitDx=0;exitDy=0;entryX=0;entryY=0.5;entryDx=0;entryDy=0;strokeColor=#82b366;strokeWidth=2;fillColor=#d5e8d4;" edge="1" parent="3nuBFxr9cyL0pnOWT2aG-18" source="7seNP1Z2jiMKAIhSUA_z-226" target="7seNP1Z2jiMKAIhSUA_z-410">
          <mxGeometry relative="1" as="geometry" />
        </mxCell>
        <mxCell id="7seNP1Z2jiMKAIhSUA_z-226" value="yes" style="whiteSpace=wrap;html=1;fillColor=#d5e8d4;strokeColor=#82b366;" vertex="1" parent="3nuBFxr9cyL0pnOWT2aG-18">
          <mxGeometry x="658" y="130" width="40" height="40" as="geometry" />
        </mxCell>
        <mxCell id="7seNP1Z2jiMKAIhSUA_z-340" style="edgeStyle=orthogonalEdgeStyle;rounded=0;orthogonalLoop=1;jettySize=auto;html=1;exitX=0.5;exitY=1;exitDx=0;exitDy=0;entryX=0.5;entryY=1;entryDx=0;entryDy=0;strokeColor=#b85450;strokeWidth=2;fillColor=#f8cecc;" edge="1" parent="3nuBFxr9cyL0pnOWT2aG-18" source="7seNP1Z2jiMKAIhSUA_z-164" target="7seNP1Z2jiMKAIhSUA_z-415">
          <mxGeometry relative="1" as="geometry">
            <mxPoint x="234" y="190" as="targetPoint" />
            <Array as="points">
              <mxPoint x="511" y="367" />
              <mxPoint x="272" y="367" />
            </Array>
          </mxGeometry>
        </mxCell>
        <mxCell id="7seNP1Z2jiMKAIhSUA_z-164" value="No" style="whiteSpace=wrap;html=1;fillColor=#f8cecc;strokeColor=#b85450;" vertex="1" parent="3nuBFxr9cyL0pnOWT2aG-18">
          <mxGeometry x="490" y="306" width="42" height="38" as="geometry" />
        </mxCell>
        <mxCell id="7seNP1Z2jiMKAIhSUA_z-427" value="" style="edgeStyle=orthogonalEdgeStyle;rounded=0;orthogonalLoop=1;jettySize=auto;html=1;strokeColor=#82b366;strokeWidth=2;fillColor=#d5e8d4;" edge="1" parent="3nuBFxr9cyL0pnOWT2aG-18" source="7seNP1Z2jiMKAIhSUA_z-174" target="7seNP1Z2jiMKAIhSUA_z-426">
          <mxGeometry relative="1" as="geometry" />
        </mxCell>
        <mxCell id="7seNP1Z2jiMKAIhSUA_z-174" value="yes" style="whiteSpace=wrap;html=1;fillColor=#d5e8d4;strokeColor=#82b366;shadow=0;" vertex="1" parent="3nuBFxr9cyL0pnOWT2aG-18">
          <mxGeometry x="490" y="131" width="40" height="40" as="geometry" />
        </mxCell>
        <mxCell id="7seNP1Z2jiMKAIhSUA_z-321" style="edgeStyle=orthogonalEdgeStyle;rounded=0;orthogonalLoop=1;jettySize=auto;html=1;exitX=0.5;exitY=1;exitDx=0;exitDy=0;strokeColor=#82b366;strokeWidth=2;fillColor=#d5e8d4;" edge="1" parent="3nuBFxr9cyL0pnOWT2aG-18" target="7seNP1Z2jiMKAIhSUA_z-186">
          <mxGeometry relative="1" as="geometry">
            <mxPoint x="813" y="120" as="sourcePoint" />
          </mxGeometry>
        </mxCell>
        <mxCell id="7seNP1Z2jiMKAIhSUA_z-201" value="enable&lt;br&gt;submit&lt;br&gt;button" style="whiteSpace=wrap;html=1;fillColor=#d5e8d4;strokeColor=#82b366;shadow=0;sketch=0;" vertex="1" parent="3nuBFxr9cyL0pnOWT2aG-18">
          <mxGeometry x="904" y="64" width="59" height="56" as="geometry" />
        </mxCell>
        <mxCell id="7seNP1Z2jiMKAIhSUA_z-369" value="send form to server" style="shape=process;whiteSpace=wrap;html=1;backgroundOutline=1;rounded=0;fillColor=#f5f5f5;fontColor=#333333;strokeColor=#666666;" vertex="1" parent="3nuBFxr9cyL0pnOWT2aG-18">
          <mxGeometry x="996" y="295" width="120" height="60" as="geometry" />
        </mxCell>
        <mxCell id="7seNP1Z2jiMKAIhSUA_z-385" value="gather form data&lt;br&gt;&amp;amp; build request" style="shape=hexagon;perimeter=hexagonPerimeter2;whiteSpace=wrap;html=1;fixedSize=1;rounded=0;shadow=0;glass=0;sketch=0;strokeWidth=1;fillColor=#e1d5e7;strokeColor=#9673a6;" vertex="1" parent="3nuBFxr9cyL0pnOWT2aG-18">
          <mxGeometry x="982.82" y="208.5" width="146.36" height="55" as="geometry" />
        </mxCell>
        <mxCell id="7seNP1Z2jiMKAIhSUA_z-370" value="" style="edgeStyle=orthogonalEdgeStyle;rounded=0;orthogonalLoop=1;jettySize=auto;html=1;strokeColor=#000000;strokeWidth=2;exitX=0.5;exitY=1;exitDx=0;exitDy=0;" edge="1" parent="3nuBFxr9cyL0pnOWT2aG-18" source="7seNP1Z2jiMKAIhSUA_z-385" target="7seNP1Z2jiMKAIhSUA_z-369">
          <mxGeometry relative="1" as="geometry">
            <mxPoint x="1014" y="220.5" as="sourcePoint" />
          </mxGeometry>
        </mxCell>
        <mxCell id="7seNP1Z2jiMKAIhSUA_z-423" value="" style="edgeStyle=orthogonalEdgeStyle;rounded=0;orthogonalLoop=1;jettySize=auto;html=1;strokeColor=#000000;strokeWidth=2;" edge="1" parent="3nuBFxr9cyL0pnOWT2aG-18" source="7seNP1Z2jiMKAIhSUA_z-408" target="7seNP1Z2jiMKAIhSUA_z-422">
          <mxGeometry relative="1" as="geometry" />
        </mxCell>
        <mxCell id="7seNP1Z2jiMKAIhSUA_z-408" value="server &lt;br&gt;response data" style="shape=parallelogram;perimeter=parallelogramPerimeter;whiteSpace=wrap;html=1;fixedSize=1;fillColor=#e1d5e7;strokeColor=#9673a6;rounded=0;shadow=0;glass=0;sketch=0;strokeWidth=1;" vertex="1" parent="3nuBFxr9cyL0pnOWT2aG-18">
          <mxGeometry x="1271" y="295" width="120" height="60" as="geometry" />
        </mxCell>
        <mxCell id="7seNP1Z2jiMKAIhSUA_z-411" value="" style="edgeStyle=orthogonalEdgeStyle;rounded=0;orthogonalLoop=1;jettySize=auto;html=1;strokeColor=#000000;strokeWidth=2;" edge="1" parent="3nuBFxr9cyL0pnOWT2aG-18" source="7seNP1Z2jiMKAIhSUA_z-410" target="7seNP1Z2jiMKAIhSUA_z-186">
          <mxGeometry relative="1" as="geometry" />
        </mxCell>
        <mxCell id="7seNP1Z2jiMKAIhSUA_z-410" value="&lt;font face=&quot;helvetica&quot;&gt;Set Css&lt;br&gt;success Styling&lt;br&gt;&lt;/font&gt;" style="whiteSpace=wrap;html=1;fixedSize=1;rounded=0;shadow=0;glass=0;sketch=0;strokeWidth=2;fillColor=#d5e8d4;strokeColor=#82b366;" vertex="1" parent="3nuBFxr9cyL0pnOWT2aG-18">
          <mxGeometry x="752.5" y="71.5" width="121" height="41" as="geometry" />
        </mxCell>
        <mxCell id="7seNP1Z2jiMKAIhSUA_z-417" style="edgeStyle=orthogonalEdgeStyle;rounded=0;orthogonalLoop=1;jettySize=auto;html=1;exitX=0;exitY=0.5;exitDx=0;exitDy=0;entryX=1;entryY=0.5;entryDx=0;entryDy=0;strokeColor=#b85450;strokeWidth=2;fillColor=#f8cecc;" edge="1" parent="3nuBFxr9cyL0pnOWT2aG-18" source="7seNP1Z2jiMKAIhSUA_z-415" target="7seNP1Z2jiMKAIhSUA_z-416">
          <mxGeometry relative="1" as="geometry" />
        </mxCell>
        <mxCell id="7seNP1Z2jiMKAIhSUA_z-415" value="set error message&lt;br&gt;&amp;amp; css Styling" style="whiteSpace=wrap;html=1;fixedSize=1;rounded=0;shadow=0;glass=0;sketch=0;strokeWidth=2;fillColor=#f8cecc;strokeColor=#b85450;" vertex="1" parent="3nuBFxr9cyL0pnOWT2aG-18">
          <mxGeometry x="211" y="89" width="120" height="49" as="geometry" />
        </mxCell>
        <mxCell id="7seNP1Z2jiMKAIhSUA_z-416" value="disable&lt;br&gt;submit button" style="whiteSpace=wrap;html=1;fixedSize=1;rounded=0;shadow=0;glass=0;sketch=0;strokeWidth=2;fillColor=#f8cecc;strokeColor=#b85450;" vertex="1" parent="3nuBFxr9cyL0pnOWT2aG-18">
          <mxGeometry x="22" y="89" width="120" height="48" as="geometry" />
        </mxCell>
        <mxCell id="7seNP1Z2jiMKAIhSUA_z-418" value="display&amp;nbsp;&lt;br&gt;file picker" style="whiteSpace=wrap;html=1;fixedSize=1;rounded=0;shadow=0;glass=0;sketch=0;strokeWidth=2;fillColor=default;gradientColor=none;" vertex="1" parent="3nuBFxr9cyL0pnOWT2aG-18">
          <mxGeometry x="128.5" y="28.5" width="95" height="43" as="geometry" />
        </mxCell>
        <mxCell id="7seNP1Z2jiMKAIhSUA_z-425" value="" style="edgeStyle=orthogonalEdgeStyle;rounded=0;orthogonalLoop=1;jettySize=auto;html=1;strokeColor=#000000;strokeWidth=2;" edge="1" parent="3nuBFxr9cyL0pnOWT2aG-18" source="7seNP1Z2jiMKAIhSUA_z-422" target="7seNP1Z2jiMKAIhSUA_z-424">
          <mxGeometry relative="1" as="geometry" />
        </mxCell>
        <mxCell id="7seNP1Z2jiMKAIhSUA_z-422" value="reset&amp;nbsp; form inputs&lt;br&gt;&amp;amp; default styling" style="shape=hexagon;perimeter=hexagonPerimeter2;whiteSpace=wrap;html=1;fixedSize=1;fillColor=#e1d5e7;strokeColor=#9673a6;rounded=0;shadow=0;glass=0;sketch=0;strokeWidth=1;" vertex="1" parent="3nuBFxr9cyL0pnOWT2aG-18">
          <mxGeometry x="1271" y="173" width="120" height="60.25" as="geometry" />
        </mxCell>
        <mxCell id="7seNP1Z2jiMKAIhSUA_z-424" value="display link to file&amp;nbsp;&lt;br&gt;where preview image&lt;br&gt;was displayed" style="whiteSpace=wrap;html=1;fillColor=#e1d5e7;strokeColor=#9673a6;rounded=0;shadow=0;glass=0;sketch=0;strokeWidth=1;" vertex="1" parent="3nuBFxr9cyL0pnOWT2aG-18">
          <mxGeometry x="1271" y="32.875" width="120" height="60" as="geometry" />
        </mxCell>
        <mxCell id="7seNP1Z2jiMKAIhSUA_z-428" style="edgeStyle=orthogonalEdgeStyle;rounded=0;orthogonalLoop=1;jettySize=auto;html=1;exitX=1;exitY=0.5;exitDx=0;exitDy=0;entryX=0;entryY=0.5;entryDx=0;entryDy=0;strokeColor=#000000;strokeWidth=2;" edge="1" parent="3nuBFxr9cyL0pnOWT2aG-18" source="7seNP1Z2jiMKAIhSUA_z-426" target="7seNP1Z2jiMKAIhSUA_z-410">
          <mxGeometry relative="1" as="geometry" />
        </mxCell>
        <mxCell id="7seNP1Z2jiMKAIhSUA_z-426" value="display file name &amp;amp; preview" style="whiteSpace=wrap;html=1;fillColor=#d5e8d4;strokeColor=#82b366;shadow=0;" vertex="1" parent="3nuBFxr9cyL0pnOWT2aG-18">
          <mxGeometry x="462" y="71.5" width="98" height="42" as="geometry" />
        </mxCell>
        <mxCell id="3nuBFxr9cyL0pnOWT2aG-23" value="" style="swimlane;connectable=0;startSize=0;html=1;whiteSpace=wrap;collapsible=0;recursiveResize=0;expand=0;" parent="3nuBFxr9cyL0pnOWT2aG-15" vertex="1">
          <mxGeometry x="1960" width="142" height="437" as="geometry">
            <mxRectangle width="142" height="437" as="alternateBounds" />
          </mxGeometry>
        </mxCell>
        <mxCell id="7seNP1Z2jiMKAIhSUA_z-312" style="edgeStyle=orthogonalEdgeStyle;rounded=0;orthogonalLoop=1;jettySize=auto;html=1;exitX=0;exitY=0.5;exitDx=0;exitDy=0;entryX=1;entryY=0.5;entryDx=0;entryDy=0;strokeColor=#000000;strokeWidth=2;" edge="1" parent="3nuBFxr9cyL0pnOWT2aG-15" source="7seNP1Z2jiMKAIhSUA_z-416" target="7seNP1Z2jiMKAIhSUA_z-421">
          <mxGeometry relative="1" as="geometry">
            <mxPoint x="302" y="112.5" as="sourcePoint" />
            <mxPoint x="251" y="113" as="targetPoint" />
          </mxGeometry>
        </mxCell>
        <mxCell id="7seNP1Z2jiMKAIhSUA_z-297" style="edgeStyle=orthogonalEdgeStyle;orthogonalLoop=1;jettySize=auto;html=1;exitX=0.5;exitY=1;exitDx=0;exitDy=0;strokeWidth=2;fillColor=#e1d5e7;strokeColor=#9673a6;rounded=0;" edge="1" parent="3nuBFxr9cyL0pnOWT2aG-1" source="7seNP1Z2jiMKAIhSUA_z-369" target="7seNP1Z2jiMKAIhSUA_z-160">
          <mxGeometry relative="1" as="geometry">
            <mxPoint x="1225.5" y="834" as="targetPoint" />
          </mxGeometry>
        </mxCell>
        <mxCell id="7seNP1Z2jiMKAIhSUA_z-377" style="edgeStyle=orthogonalEdgeStyle;rounded=0;orthogonalLoop=1;jettySize=auto;html=1;exitX=0.5;exitY=1;exitDx=0;exitDy=0;strokeColor=#000000;strokeWidth=2;fillColor=#d5e8d4;entryX=0.5;entryY=0;entryDx=0;entryDy=0;" edge="1" parent="3nuBFxr9cyL0pnOWT2aG-1" source="7seNP1Z2jiMKAIhSUA_z-374" target="7seNP1Z2jiMKAIhSUA_z-260">
          <mxGeometry relative="1" as="geometry">
            <Array as="points">
              <mxPoint x="1417" y="978" />
              <mxPoint x="1304" y="978" />
            </Array>
          </mxGeometry>
        </mxCell>
        <mxCell id="7seNP1Z2jiMKAIhSUA_z-403" value="" style="edgeStyle=orthogonalEdgeStyle;rounded=0;orthogonalLoop=1;jettySize=auto;html=1;strokeColor=#000000;strokeWidth=2;fillColor=#d5e8d4;" edge="1" parent="3nuBFxr9cyL0pnOWT2aG-1" source="7seNP1Z2jiMKAIhSUA_z-362" target="7seNP1Z2jiMKAIhSUA_z-402">
          <mxGeometry relative="1" as="geometry" />
        </mxCell>
        <mxCell id="7seNP1Z2jiMKAIhSUA_z-1" value="server" style="swimlane;horizontal=0;points=[[0,0.5],[1,0.5]];portConstraint=eastwest;startSize=40;html=1;whiteSpace=wrap;collapsible=0;recursiveResize=0;expand=0;swimlaneFillColor=none;gradientColor=none;fillColor=default;" vertex="1" parent="3nuBFxr9cyL0pnOWT2aG-1">
          <mxGeometry y="691" width="2102" height="317" as="geometry" />
        </mxCell>
        <mxCell id="7seNP1Z2jiMKAIhSUA_z-2" value="" style="swimlane;connectable=0;startSize=0;html=1;whiteSpace=wrap;collapsible=0;recursiveResize=0;expand=0;" vertex="1" parent="7seNP1Z2jiMKAIhSUA_z-1">
          <mxGeometry x="40" width="206" height="317" as="geometry">
            <mxRectangle width="206" height="317" as="alternateBounds" />
          </mxGeometry>
        </mxCell>
        <mxCell id="7seNP1Z2jiMKAIhSUA_z-4" value="" style="swimlane;connectable=0;startSize=0;html=1;whiteSpace=wrap;collapsible=0;recursiveResize=0;expand=0;perimeter=trianglePerimeter;strokeWidth=1;dashed=1;" vertex="1" parent="7seNP1Z2jiMKAIhSUA_z-1">
          <mxGeometry x="246" width="1714" height="317" as="geometry">
            <mxRectangle width="1714" height="317" as="alternateBounds" />
          </mxGeometry>
        </mxCell>
        <mxCell id="7seNP1Z2jiMKAIhSUA_z-306" style="edgeStyle=orthogonalEdgeStyle;rounded=0;orthogonalLoop=1;jettySize=auto;html=1;exitX=0;exitY=0.5;exitDx=0;exitDy=0;entryX=1;entryY=0.5;entryDx=0;entryDy=0;strokeColor=#b85450;strokeWidth=2;fillColor=#f8cecc;endArrow=none;endFill=0;" edge="1" parent="7seNP1Z2jiMKAIhSUA_z-4" source="7seNP1Z2jiMKAIhSUA_z-160" target="7seNP1Z2jiMKAIhSUA_z-248">
          <mxGeometry relative="1" as="geometry" />
        </mxCell>
        <mxCell id="7seNP1Z2jiMKAIhSUA_z-392" style="edgeStyle=orthogonalEdgeStyle;rounded=0;orthogonalLoop=1;jettySize=auto;html=1;exitX=1;exitY=0.5;exitDx=0;exitDy=0;entryX=0;entryY=0.5;entryDx=0;entryDy=0;strokeColor=#82b366;strokeWidth=2;fillColor=#d5e8d4;endArrow=none;endFill=0;" edge="1" parent="7seNP1Z2jiMKAIhSUA_z-4" source="7seNP1Z2jiMKAIhSUA_z-160" target="7seNP1Z2jiMKAIhSUA_z-253">
          <mxGeometry relative="1" as="geometry" />
        </mxCell>
        <mxCell id="7seNP1Z2jiMKAIhSUA_z-160" value="authorized?" style="rhombus;whiteSpace=wrap;html=1;rounded=0;shadow=0;glass=0;sketch=0;fillColor=#ffe6cc;strokeColor=#d79b00;" vertex="1" parent="7seNP1Z2jiMKAIhSUA_z-4">
          <mxGeometry x="1014" y="20.25" width="83" height="80" as="geometry" />
        </mxCell>
        <mxCell id="7seNP1Z2jiMKAIhSUA_z-333" style="edgeStyle=orthogonalEdgeStyle;rounded=0;orthogonalLoop=1;jettySize=auto;html=1;exitX=0;exitY=0.5;exitDx=0;exitDy=0;entryX=1;entryY=0.5;entryDx=0;entryDy=0;strokeColor=#b85450;strokeWidth=2;fillColor=#f8cecc;" edge="1" parent="7seNP1Z2jiMKAIhSUA_z-4" source="7seNP1Z2jiMKAIhSUA_z-248" target="7seNP1Z2jiMKAIhSUA_z-270">
          <mxGeometry relative="1" as="geometry" />
        </mxCell>
        <mxCell id="7seNP1Z2jiMKAIhSUA_z-248" value="No" style="whiteSpace=wrap;html=1;fillColor=#f8cecc;strokeColor=#b85450;shadow=1;" vertex="1" parent="7seNP1Z2jiMKAIhSUA_z-4">
          <mxGeometry x="913" y="40.5" width="44" height="39.5" as="geometry" />
        </mxCell>
        <mxCell id="7seNP1Z2jiMKAIhSUA_z-388" value="" style="edgeStyle=orthogonalEdgeStyle;rounded=0;orthogonalLoop=1;jettySize=auto;html=1;strokeColor=#82b366;strokeWidth=2;exitX=0.5;exitY=1;exitDx=0;exitDy=0;fillColor=#d5e8d4;" edge="1" parent="7seNP1Z2jiMKAIhSUA_z-4" source="7seNP1Z2jiMKAIhSUA_z-253" target="7seNP1Z2jiMKAIhSUA_z-387">
          <mxGeometry relative="1" as="geometry" />
        </mxCell>
        <mxCell id="7seNP1Z2jiMKAIhSUA_z-253" value="yes" style="whiteSpace=wrap;html=1;fillColor=#d5e8d4;strokeColor=#82b366;" vertex="1" parent="7seNP1Z2jiMKAIhSUA_z-4">
          <mxGeometry x="1151" y="41.75" width="40" height="37" as="geometry" />
        </mxCell>
        <mxCell id="7seNP1Z2jiMKAIhSUA_z-270" value="respond to client&lt;br&gt;Status 401" style="whiteSpace=wrap;html=1;fillColor=#f8cecc;strokeColor=#b85450;" vertex="1" parent="7seNP1Z2jiMKAIhSUA_z-4">
          <mxGeometry x="742" y="38.75" width="112" height="43" as="geometry" />
        </mxCell>
        <mxCell id="7seNP1Z2jiMKAIhSUA_z-374" value="send file to cloudinary" style="shape=process;whiteSpace=wrap;html=1;backgroundOutline=1;fillColor=#f5f5f5;strokeColor=#666666;fontColor=#333333;" vertex="1" parent="7seNP1Z2jiMKAIhSUA_z-4">
          <mxGeometry x="1111" y="194.01" width="120" height="60" as="geometry" />
        </mxCell>
        <mxCell id="7seNP1Z2jiMKAIhSUA_z-395" style="edgeStyle=orthogonalEdgeStyle;rounded=0;orthogonalLoop=1;jettySize=auto;html=1;exitX=0.5;exitY=1;exitDx=0;exitDy=0;strokeColor=#000000;strokeWidth=2;fillColor=#d5e8d4;" edge="1" parent="7seNP1Z2jiMKAIhSUA_z-4" source="7seNP1Z2jiMKAIhSUA_z-387" target="7seNP1Z2jiMKAIhSUA_z-374">
          <mxGeometry relative="1" as="geometry" />
        </mxCell>
        <mxCell id="7seNP1Z2jiMKAIhSUA_z-387" value="build cloudinary request" style="shape=hexagon;perimeter=hexagonPerimeter2;whiteSpace=wrap;html=1;fixedSize=1;fillColor=#e1d5e7;strokeColor=#9673a6;" vertex="1" parent="7seNP1Z2jiMKAIhSUA_z-4">
          <mxGeometry x="1111" y="115" width="120" height="41" as="geometry" />
        </mxCell>
        <mxCell id="7seNP1Z2jiMKAIhSUA_z-405" value="" style="edgeStyle=orthogonalEdgeStyle;rounded=0;orthogonalLoop=1;jettySize=auto;html=1;strokeColor=#000000;strokeWidth=2;fillColor=#d5e8d4;" edge="1" parent="7seNP1Z2jiMKAIhSUA_z-4" source="7seNP1Z2jiMKAIhSUA_z-402" target="7seNP1Z2jiMKAIhSUA_z-404">
          <mxGeometry relative="1" as="geometry" />
        </mxCell>
        <mxCell id="7seNP1Z2jiMKAIhSUA_z-402" value="cloudinary&lt;br&gt;response&lt;br&gt;data" style="shape=parallelogram;perimeter=parallelogramPerimeter;whiteSpace=wrap;html=1;fixedSize=1;fillColor=#e1d5e7;strokeColor=#9673a6;rounded=0;shadow=0;glass=0;sketch=0;strokeWidth=1;" vertex="1" parent="7seNP1Z2jiMKAIhSUA_z-4">
          <mxGeometry x="1271" y="222.005" width="120" height="60" as="geometry" />
        </mxCell>
        <mxCell id="7seNP1Z2jiMKAIhSUA_z-407" value="" style="edgeStyle=orthogonalEdgeStyle;rounded=0;orthogonalLoop=1;jettySize=auto;html=1;strokeColor=#000000;strokeWidth=2;" edge="1" parent="7seNP1Z2jiMKAIhSUA_z-4" source="7seNP1Z2jiMKAIhSUA_z-404" target="7seNP1Z2jiMKAIhSUA_z-406">
          <mxGeometry relative="1" as="geometry" />
        </mxCell>
        <mxCell id="7seNP1Z2jiMKAIhSUA_z-404" value="build response&lt;br&gt;to client" style="shape=hexagon;perimeter=hexagonPerimeter2;whiteSpace=wrap;html=1;fixedSize=1;fillColor=#e1d5e7;strokeColor=#9673a6;rounded=0;shadow=0;glass=0;sketch=0;strokeWidth=1;" vertex="1" parent="7seNP1Z2jiMKAIhSUA_z-4">
          <mxGeometry x="1271" y="133" width="120" height="45.5" as="geometry" />
        </mxCell>
        <mxCell id="7seNP1Z2jiMKAIhSUA_z-406" value="respond&lt;br&gt;to client" style="shape=process;whiteSpace=wrap;html=1;backgroundOutline=1;fillColor=#f5f5f5;strokeColor=#666666;rounded=0;shadow=0;glass=0;sketch=0;strokeWidth=1;fontColor=#333333;" vertex="1" parent="7seNP1Z2jiMKAIhSUA_z-4">
          <mxGeometry x="1271" y="30.25" width="120" height="60" as="geometry" />
        </mxCell>
        <mxCell id="7seNP1Z2jiMKAIhSUA_z-9" value="" style="swimlane;connectable=0;startSize=0;html=1;whiteSpace=wrap;collapsible=0;recursiveResize=0;expand=0;" vertex="1" parent="7seNP1Z2jiMKAIhSUA_z-1">
          <mxGeometry x="1960" width="142" height="317" as="geometry">
            <mxRectangle width="142" height="317" as="alternateBounds" />
          </mxGeometry>
        </mxCell>
        <mxCell id="7seNP1Z2jiMKAIhSUA_z-130" value="cloudinary" style="swimlane;horizontal=0;points=[[0,0.5],[1,0.5]];portConstraint=eastwest;startSize=40;html=1;whiteSpace=wrap;collapsible=0;recursiveResize=0;expand=0;swimlaneFillColor=none;gradientColor=none;fillColor=default;" vertex="1" parent="3nuBFxr9cyL0pnOWT2aG-1">
          <mxGeometry y="1008" width="2102" height="203" as="geometry" />
        </mxCell>
        <mxCell id="7seNP1Z2jiMKAIhSUA_z-131" value="" style="swimlane;connectable=0;startSize=0;html=1;whiteSpace=wrap;collapsible=0;recursiveResize=0;expand=0;" vertex="1" parent="7seNP1Z2jiMKAIhSUA_z-130">
          <mxGeometry x="40" width="206" height="203" as="geometry">
            <mxRectangle width="206" height="203" as="alternateBounds" />
          </mxGeometry>
        </mxCell>
        <mxCell id="7seNP1Z2jiMKAIhSUA_z-132" value="" style="swimlane;connectable=0;startSize=0;html=1;whiteSpace=wrap;collapsible=0;recursiveResize=0;expand=0;strokeWidth=2;" vertex="1" parent="7seNP1Z2jiMKAIhSUA_z-130">
          <mxGeometry x="246" width="1714" height="203" as="geometry">
            <mxRectangle width="1714" height="203" as="alternateBounds" />
          </mxGeometry>
        </mxCell>
        <mxCell id="7seNP1Z2jiMKAIhSUA_z-331" style="edgeStyle=orthogonalEdgeStyle;rounded=0;orthogonalLoop=1;jettySize=auto;html=1;exitX=0;exitY=0.5;exitDx=0;exitDy=0;entryX=1;entryY=0.5;entryDx=0;entryDy=0;strokeColor=#b85450;strokeWidth=2;fillColor=#f8cecc;endArrow=none;endFill=0;" edge="1" parent="7seNP1Z2jiMKAIhSUA_z-132" source="7seNP1Z2jiMKAIhSUA_z-260" target="7seNP1Z2jiMKAIhSUA_z-330">
          <mxGeometry relative="1" as="geometry" />
        </mxCell>
        <mxCell id="7seNP1Z2jiMKAIhSUA_z-260" value="authorized?" style="rhombus;whiteSpace=wrap;html=1;rounded=0;shadow=0;glass=0;sketch=0;fillColor=#ffe6cc;strokeColor=#d79b00;" vertex="1" parent="7seNP1Z2jiMKAIhSUA_z-132">
          <mxGeometry x="1018" y="40" width="80" height="80" as="geometry" />
        </mxCell>
        <mxCell id="7seNP1Z2jiMKAIhSUA_z-363" style="edgeStyle=orthogonalEdgeStyle;rounded=0;orthogonalLoop=1;jettySize=auto;html=1;exitX=1;exitY=0.5;exitDx=0;exitDy=0;entryX=0;entryY=0.5;entryDx=0;entryDy=0;strokeColor=#82b366;strokeWidth=2;fillColor=#d5e8d4;" edge="1" parent="7seNP1Z2jiMKAIhSUA_z-132" source="7seNP1Z2jiMKAIhSUA_z-262" target="7seNP1Z2jiMKAIhSUA_z-362">
          <mxGeometry relative="1" as="geometry" />
        </mxCell>
        <mxCell id="7seNP1Z2jiMKAIhSUA_z-262" value="yes" style="whiteSpace=wrap;html=1;fillColor=#d5e8d4;strokeColor=#82b366;" vertex="1" parent="7seNP1Z2jiMKAIhSUA_z-132">
          <mxGeometry x="1157" y="59.63" width="40" height="40" as="geometry" />
        </mxCell>
        <mxCell id="7seNP1Z2jiMKAIhSUA_z-259" style="edgeStyle=orthogonalEdgeStyle;rounded=0;orthogonalLoop=1;jettySize=auto;html=1;exitX=1;exitY=0.5;exitDx=0;exitDy=0;entryX=0;entryY=0.5;entryDx=0;entryDy=0;strokeWidth=2;fillColor=#d5e8d4;strokeColor=#82b366;endArrow=none;endFill=0;" edge="1" parent="7seNP1Z2jiMKAIhSUA_z-132" source="7seNP1Z2jiMKAIhSUA_z-260" target="7seNP1Z2jiMKAIhSUA_z-262">
          <mxGeometry relative="1" as="geometry" />
        </mxCell>
        <mxCell id="7seNP1Z2jiMKAIhSUA_z-398" value="" style="edgeStyle=orthogonalEdgeStyle;rounded=0;orthogonalLoop=1;jettySize=auto;html=1;strokeColor=#b85450;strokeWidth=2;fillColor=#f8cecc;" edge="1" parent="7seNP1Z2jiMKAIhSUA_z-132" source="7seNP1Z2jiMKAIhSUA_z-330" target="7seNP1Z2jiMKAIhSUA_z-397">
          <mxGeometry relative="1" as="geometry" />
        </mxCell>
        <mxCell id="7seNP1Z2jiMKAIhSUA_z-330" value="No" style="whiteSpace=wrap;html=1;fillColor=#f8cecc;strokeColor=#b85450;" vertex="1" parent="7seNP1Z2jiMKAIhSUA_z-132">
          <mxGeometry x="939" y="59.629999999999995" width="40" height="39.5" as="geometry" />
        </mxCell>
        <mxCell id="7seNP1Z2jiMKAIhSUA_z-362" value="host file&lt;br&gt;&amp;amp; respond &lt;br&gt;to server" style="shape=process;whiteSpace=wrap;html=1;backgroundOutline=1;rounded=0;shadow=0;glass=0;sketch=0;strokeWidth=1;fillColor=#f5f5f5;fontColor=#333333;strokeColor=#666666;" vertex="1" parent="7seNP1Z2jiMKAIhSUA_z-132">
          <mxGeometry x="1272.5" y="46.440000000000005" width="117" height="66.37" as="geometry" />
        </mxCell>
        <mxCell id="7seNP1Z2jiMKAIhSUA_z-397" value="respond to server&lt;br&gt;status 401&lt;br&gt;" style="whiteSpace=wrap;html=1;fillColor=#f8cecc;strokeColor=#b85450;" vertex="1" parent="7seNP1Z2jiMKAIhSUA_z-132">
          <mxGeometry x="738" y="60" width="120" height="40" as="geometry" />
        </mxCell>
        <mxCell id="7seNP1Z2jiMKAIhSUA_z-134" value="" style="swimlane;connectable=0;startSize=0;html=1;whiteSpace=wrap;collapsible=0;recursiveResize=0;expand=0;" vertex="1" parent="7seNP1Z2jiMKAIhSUA_z-130">
          <mxGeometry x="1960" width="142" height="203" as="geometry">
            <mxRectangle width="142" height="203" as="alternateBounds" />
          </mxGeometry>
        </mxCell>
        <mxCell id="7seNP1Z2jiMKAIhSUA_z-204" style="edgeStyle=orthogonalEdgeStyle;rounded=0;orthogonalLoop=1;jettySize=auto;html=1;exitX=0.5;exitY=0;exitDx=0;exitDy=0;entryX=0.5;entryY=0;entryDx=0;entryDy=0;fillColor=#dae8fc;strokeColor=#6c8ebf;strokeWidth=2;" edge="1" parent="3nuBFxr9cyL0pnOWT2aG-1" source="7seNP1Z2jiMKAIhSUA_z-421" target="3nuBFxr9cyL0pnOWT2aG-9">
          <mxGeometry relative="1" as="geometry">
            <mxPoint x="211" y="378" as="sourcePoint" />
            <Array as="points">
              <mxPoint x="194" y="142" />
              <mxPoint x="422" y="142" />
            </Array>
          </mxGeometry>
        </mxCell>
        <mxCell id="7seNP1Z2jiMKAIhSUA_z-205" style="edgeStyle=orthogonalEdgeStyle;rounded=0;orthogonalLoop=1;jettySize=auto;html=1;exitX=1;exitY=0.5;exitDx=0;exitDy=0;entryX=0;entryY=0.5;entryDx=0;entryDy=0;strokeWidth=2;fillColor=#dae8fc;strokeColor=#6c8ebf;" edge="1" parent="3nuBFxr9cyL0pnOWT2aG-1" source="7seNP1Z2jiMKAIhSUA_z-418" target="3nuBFxr9cyL0pnOWT2aG-10">
          <mxGeometry relative="1" as="geometry">
            <mxPoint x="498" y="335.5" as="sourcePoint" />
          </mxGeometry>
        </mxCell>
        <mxCell id="7seNP1Z2jiMKAIhSUA_z-217" style="edgeStyle=orthogonalEdgeStyle;rounded=0;orthogonalLoop=1;jettySize=auto;html=1;exitX=0.5;exitY=0;exitDx=0;exitDy=0;entryX=0.5;entryY=0;entryDx=0;entryDy=0;fillColor=#dae8fc;strokeColor=#6c8ebf;strokeWidth=2;" edge="1" parent="3nuBFxr9cyL0pnOWT2aG-1" source="7seNP1Z2jiMKAIhSUA_z-421" target="7seNP1Z2jiMKAIhSUA_z-216">
          <mxGeometry relative="1" as="geometry">
            <mxPoint x="211" y="378" as="sourcePoint" />
            <Array as="points">
              <mxPoint x="194" y="142" />
              <mxPoint x="846" y="142" />
            </Array>
          </mxGeometry>
        </mxCell>
        <mxCell id="7seNP1Z2jiMKAIhSUA_z-334" style="edgeStyle=orthogonalEdgeStyle;rounded=0;orthogonalLoop=1;jettySize=auto;html=1;exitX=0;exitY=0.5;exitDx=0;exitDy=0;entryX=0.5;entryY=1;entryDx=0;entryDy=0;strokeColor=#b85450;strokeWidth=2;fillColor=#f8cecc;" edge="1" parent="3nuBFxr9cyL0pnOWT2aG-1" source="7seNP1Z2jiMKAIhSUA_z-270" target="7seNP1Z2jiMKAIhSUA_z-415">
          <mxGeometry relative="1" as="geometry">
            <mxPoint x="516" y="485" as="targetPoint" />
          </mxGeometry>
        </mxCell>
        <mxCell id="7seNP1Z2jiMKAIhSUA_z-328" style="edgeStyle=orthogonalEdgeStyle;rounded=0;orthogonalLoop=1;jettySize=auto;html=1;exitX=0.5;exitY=1;exitDx=0;exitDy=0;strokeColor=#000000;strokeWidth=2;entryX=0.5;entryY=0;entryDx=0;entryDy=0;" edge="1" parent="3nuBFxr9cyL0pnOWT2aG-1" source="7seNP1Z2jiMKAIhSUA_z-25" target="7seNP1Z2jiMKAIhSUA_z-385">
          <mxGeometry relative="1" as="geometry">
            <mxPoint x="1338.5" y="472.5" as="targetPoint" />
          </mxGeometry>
        </mxCell>
        <mxCell id="7seNP1Z2jiMKAIhSUA_z-399" style="edgeStyle=orthogonalEdgeStyle;rounded=0;orthogonalLoop=1;jettySize=auto;html=1;exitX=0.5;exitY=0;exitDx=0;exitDy=0;entryX=0.5;entryY=1;entryDx=0;entryDy=0;strokeColor=#b85450;strokeWidth=2;fillColor=#f8cecc;" edge="1" parent="3nuBFxr9cyL0pnOWT2aG-1" source="7seNP1Z2jiMKAIhSUA_z-397" target="7seNP1Z2jiMKAIhSUA_z-270">
          <mxGeometry relative="1" as="geometry" />
        </mxCell>
        <mxCell id="7seNP1Z2jiMKAIhSUA_z-409" value="" style="edgeStyle=orthogonalEdgeStyle;rounded=0;orthogonalLoop=1;jettySize=auto;html=1;strokeColor=#000000;strokeWidth=2;" edge="1" parent="3nuBFxr9cyL0pnOWT2aG-1" source="7seNP1Z2jiMKAIhSUA_z-406" target="7seNP1Z2jiMKAIhSUA_z-408">
          <mxGeometry relative="1" as="geometry" />
        </mxCell>
        <mxCell id="7seNP1Z2jiMKAIhSUA_z-420" style="edgeStyle=orthogonalEdgeStyle;rounded=0;orthogonalLoop=1;jettySize=auto;html=1;exitX=0.5;exitY=1;exitDx=0;exitDy=0;entryX=0.5;entryY=0;entryDx=0;entryDy=0;strokeColor=#000000;strokeWidth=2;" edge="1" parent="3nuBFxr9cyL0pnOWT2aG-1" source="3nuBFxr9cyL0pnOWT2aG-9" target="7seNP1Z2jiMKAIhSUA_z-418">
          <mxGeometry relative="1" as="geometry" />
        </mxCell>
        <mxCell id="7seNP1Z2jiMKAIhSUA_z-429" style="edgeStyle=orthogonalEdgeStyle;rounded=0;orthogonalLoop=1;jettySize=auto;html=1;exitX=0.5;exitY=0;exitDx=0;exitDy=0;entryX=0;entryY=0.5;entryDx=0;entryDy=0;endArrow=none;endFill=0;strokeColor=#000000;strokeWidth=2;" edge="1" parent="3nuBFxr9cyL0pnOWT2aG-1" source="7seNP1Z2jiMKAIhSUA_z-424" target="3nuBFxr9cyL0pnOWT2aG-13">
          <mxGeometry relative="1" as="geometry" />
        </mxCell>
      </root>
    </mxGraphModel>
  </diagram>
</mxfile>
